<?xml version="1.0" encoding="UTF-8" standalone="no"?>
<svg width="41px" height="38px" viewBox="0 0 41 38" version="1.1" xmlns="http://www.w3.org/2000/svg" xmlns:xlink="http://www.w3.org/1999/xlink" xmlns:sketch="http://www.bohemiancoding.com/sketch/ns">
    <!-- Generator: Sketch 3.3.2 (12043) - http://www.bohemiancoding.com/sketch -->
    <title>Oval 31 + Oval 32 + Rectangle 327 Copy</title>
    <desc>Created with Sketch.</desc>
    <defs></defs>
    <g id="WEBSITE-ORDERING" stroke="none" stroke-width="1" fill="none" fill-rule="evenodd" sketch:type="MSPage">
        <g id="Ordering-Menu---Modal-Choice" sketch:type="MSArtboardGroup" transform="translate(-748.000000, -358.000000)">
            <g id="Oval-31-+-Oval-32-+-Rectangle-327-Copy" sketch:type="MSLayerGroup" transform="translate(748.000000, 358.000000)">
                <path d="M36,19.9336384 C36,9.99276849 27.9413816,1.93363844 18,1.93363844 C8.05861836,1.93363844 0,9.99276849 0,19.9336384 C0,29.8745084 8.05861836,37.9336384 18,37.9336384 C27.9413816,37.9336384 36,29.8745084 36,19.9336384 L36,19.9336384 Z M34,19.9336384 C34,28.7716423 26.8362999,35.9357973 18,35.9357973 C9.16370015,35.9357973 2,28.7716423 2,19.9336384 C2,11.0956346 9.16370015,3.93147958 18,3.93147958 C26.8362999,3.93147958 34,11.0956346 34,19.9336384 L34,19.9336384 Z" id="Shape" fill="#191919" sketch:type="MSShapeGroup"></path>
                <path d="M20.1530624,24.101548 L20.1848985,24.1333842 L17.4372836,26.8809991 L10.560387,20.0041025 L13.3080019,17.2564876 L17.4023037,21.3507894 L33.8911969,4.86189626 L36.6419555,7.6126549 L20.1530624,24.101548 L20.1530624,24.101548 Z" id="Rectangle-327-Copy" fill="#7abb4d" sketch:type="MSShapeGroup"></path>
                <path d="M20.1530624,24.101548 L20.1530624,24.101548 L20.1530624,24.101548 L36.6419555,7.6126549 L33.8911969,4.86189626 L17.4023037,21.3507894 L13.3080019,17.2564876 L10.560387,20.0041025 L17.4372836,26.8809991 L20.1848985,24.1333842 L20.1530624,24.101548 Z M22.2743827,21.9802277 L22.2743827,21.9802277 L22.3062189,22.0120638 L24.4275392,24.1333842 L22.3062189,26.2547045 L19.558604,29.0023194 L17.4372836,31.1236398 L15.3159633,29.0023194 L8.43906666,22.1254228 L6.31774632,20.0041025 L8.43906666,17.8827821 L11.1866816,15.1351672 L13.3080019,13.0138469 L15.4293223,15.1351672 L19.5236241,19.229469 L15.2809834,19.229469 L31.7698765,2.74057591 L33.8911969,0.619255571 L36.0125172,2.74057591 L38.7632758,5.49133456 L40.8845962,7.6126549 L38.7632758,9.73397525 L22.2743827,26.2228684 L20.1530624,24.101548 L22.2743827,21.9802277 Z" id="Shape" fill="#fdeae5" sketch:type="MSShapeGroup"></path>
            </g>
        </g>
    </g>
</svg>